<?xml version="1.0" standalone="no"?>
<svg xmlns="http://www.w3.org/2000/svg" width="300" height="300" xmlns:xlink="http://www.w3.org/1999/xlink" viewBox="0 0 300 300"><defs><clipPath id="clip-path-background-color-35"><rect x="0" y="0" width="300" height="300"/></clipPath><clipPath id="clip-path-dot-color-35"><path d="M 109 19v 9h 4.5a 4.5 4.5, 0, 0, 0, 0 -9" transform="rotate(-90,113.5,23.5)"/><path d="M 127 19v 9h 9v -4.5a 4.5 4.5, 0, 0, 0, -4.5 -4.5" transform="rotate(-90,131.5,23.5)"/><path d="M 136 19v 9h 9v -4.5a 4.5 4.5, 0, 0, 0, -4.5 -4.5" transform="rotate(0,140.5,23.5)"/><path d="M 163 19v 9h 4.5a 4.5 4.5, 0, 0, 0, 0 -9" transform="rotate(180,167.5,23.5)"/><rect x="172" y="19" width="9" height="9" transform="rotate(0,176.5,23.5)"/><rect x="181" y="19" width="9" height="9" transform="rotate(0,185.5,23.5)"/><path d="M 190 19v 9h 4.5a 4.5 4.5, 0, 0, 0, 0 -9" transform="rotate(0,194.5,23.5)"/><path d="M 109 28v 9h 4.5a 4.5 4.5, 0, 0, 0, 0 -9" transform="rotate(90,113.5,32.5)"/><path d="M 127 28v 9h 9v -4.5a 4.5 4.5, 0, 0, 0, -4.5 -4.5" transform="rotate(180,131.5,32.5)"/><rect x="136" y="28" width="9" height="9" transform="rotate(0,140.5,32.5)"/><rect x="145" y="28" width="9" height="9" transform="rotate(0,149.5,32.5)"/><path d="M 154 28v 9h 4.5a 4.5 4.5, 0, 0, 0, 0 -9" transform="rotate(0,158.5,32.5)"/><rect x="172" y="28" width="9" height="9" transform="rotate(0,176.5,32.5)"/><rect x="136" y="37" width="9" height="9" transform="rotate(0,140.5,41.5)"/><path d="M 163 37v 9h 4.5a 4.5 4.5, 0, 0, 0, 0 -9" transform="rotate(180,167.5,41.5)"/><rect x="172" y="37" width="9" height="9" transform="rotate(0,176.5,41.5)"/><path d="M 181 37v 9h 9v -4.5a 4.5 4.5, 0, 0, 0, -4.5 -4.5" transform="rotate(0,185.5,41.5)"/><path d="M 199 37v 9h 4.5a 4.5 4.5, 0, 0, 0, 0 -9" transform="rotate(-90,203.5,41.5)"/><path d="M 109 46v 9h 9v -4.5a 4.5 4.5, 0, 0, 0, -4.5 -4.5" transform="rotate(-90,113.5,50.5)"/><rect x="118" y="46" width="9" height="9" transform="rotate(0,122.5,50.5)"/><rect x="127" y="46" width="9" height="9" transform="rotate(0,131.5,50.5)"/><rect x="136" y="46" width="9" height="9" transform="rotate(0,140.5,50.5)"/><rect x="145" y="46" width="9" height="9" transform="rotate(0,149.5,50.5)"/><path d="M 154 46v 9h 4.5a 4.5 4.5, 0, 0, 0, 0 -9" transform="rotate(0,158.5,50.5)"/><path d="M 181 46v 9h 9v -4.5a 4.5 4.5, 0, 0, 0, -4.5 -4.5" transform="rotate(180,185.5,50.5)"/><rect x="190" y="46" width="9" height="9" transform="rotate(0,194.5,50.5)"/><path d="M 199 46v 9h 9v -4.5a 4.5 4.5, 0, 0, 0, -4.5 -4.5" transform="rotate(90,203.5,50.5)"/><path d="M 100 55v 9h 4.5a 4.5 4.5, 0, 0, 0, 0 -9" transform="rotate(180,104.5,59.5)"/><path d="M 109 55v 9h 9v -4.5a 4.5 4.5, 0, 0, 0, -4.5 -4.5" transform="rotate(90,113.5,59.5)"/><rect x="136" y="55" width="9" height="9" transform="rotate(0,140.5,59.5)"/><rect x="145" y="55" width="9" height="9" transform="rotate(0,149.5,59.5)"/><circle cx="167.5" cy="59.5" r="4.5" transform="rotate(0,167.5,59.5)"/><path d="M 91 64v 9h 4.5a 4.5 4.5, 0, 0, 0, 0 -9" transform="rotate(-90,95.5,68.5)"/><path d="M 136 64v 9h 9v -4.5a 4.5 4.5, 0, 0, 0, -4.5 -4.5" transform="rotate(180,140.5,68.5)"/><rect x="145" y="64" width="9" height="9" transform="rotate(0,149.5,68.5)"/><path d="M 181 64v 9h 9v -4.5a 4.5 4.5, 0, 0, 0, -4.5 -4.5" transform="rotate(-90,185.5,68.5)"/><path d="M 190 64v 9h 4.5a 4.5 4.5, 0, 0, 0, 0 -9" transform="rotate(0,194.5,68.5)"/><path d="M 91 73v 9h 4.5a 4.5 4.5, 0, 0, 0, 0 -9" transform="rotate(90,95.5,77.5)"/><circle cx="113.5" cy="77.5" r="4.5" transform="rotate(0,113.5,77.5)"/><circle cx="131.5" cy="77.5" r="4.5" transform="rotate(0,131.5,77.5)"/><rect x="145" y="73" width="9" height="9" transform="rotate(0,149.5,77.5)"/><circle cx="167.5" cy="77.5" r="4.5" transform="rotate(0,167.5,77.5)"/><rect x="181" y="73" width="9" height="9" transform="rotate(0,185.5,77.5)"/><circle cx="203.5" cy="77.5" r="4.5" transform="rotate(0,203.5,77.5)"/><circle cx="104.5" cy="86.5" r="4.5" transform="rotate(0,104.5,86.5)"/><path d="M 145 82v 9h 4.5a 4.5 4.5, 0, 0, 0, 0 -9" transform="rotate(90,149.5,86.5)"/><path d="M 172 82v 9h 4.5a 4.5 4.5, 0, 0, 0, 0 -9" transform="rotate(180,176.5,86.5)"/><path d="M 181 82v 9h 9v -4.5a 4.5 4.5, 0, 0, 0, -4.5 -4.5" transform="rotate(90,185.5,86.5)"/><path d="M 19 91v 9h 4.5a 4.5 4.5, 0, 0, 0, 0 -9" transform="rotate(-90,23.5,95.5)"/><path d="M 46 91v 9h 4.5a 4.5 4.5, 0, 0, 0, 0 -9" transform="rotate(-90,50.5,95.5)"/><path d="M 64 91v 9h 9v -4.5a 4.5 4.5, 0, 0, 0, -4.5 -4.5" transform="rotate(-90,68.5,95.5)"/><path d="M 73 91v 9h 4.5a 4.5 4.5, 0, 0, 0, 0 -9" transform="rotate(0,77.5,95.5)"/><circle cx="95.5" cy="95.5" r="4.5" transform="rotate(0,95.5,95.5)"/><circle cx="131.5" cy="95.5" r="4.5" transform="rotate(0,131.5,95.5)"/><path d="M 154 91v 9h 9v -4.5a 4.5 4.5, 0, 0, 0, -4.5 -4.5" transform="rotate(-90,158.5,95.5)"/><path d="M 163 91v 9h 4.5a 4.5 4.5, 0, 0, 0, 0 -9" transform="rotate(0,167.5,95.5)"/><circle cx="194.5" cy="95.5" r="4.5" transform="rotate(0,194.5,95.5)"/><path d="M 208 91v 9h 4.5a 4.5 4.5, 0, 0, 0, 0 -9" transform="rotate(-90,212.5,95.5)"/><path d="M 226 91v 9h 4.5a 4.5 4.5, 0, 0, 0, 0 -9" transform="rotate(-90,230.5,95.5)"/><path d="M 19 100v 9h 4.5a 4.5 4.5, 0, 0, 0, 0 -9" transform="rotate(90,23.5,104.5)"/><path d="M 37 100v 9h 4.5a 4.5 4.5, 0, 0, 0, 0 -9" transform="rotate(180,41.5,104.5)"/><path d="M 46 100v 9h 9v -4.5a 4.5 4.5, 0, 0, 0, -4.5 -4.5" transform="rotate(90,50.5,104.5)"/><path d="M 64 100v 9h 4.5a 4.5 4.5, 0, 0, 0, 0 -9" transform="rotate(90,68.5,104.5)"/><path d="M 145 100v 9h 4.5a 4.5 4.5, 0, 0, 0, 0 -9" transform="rotate(180,149.5,104.5)"/><path d="M 154 100v 9h 9v -4.5a 4.5 4.5, 0, 0, 0, -4.5 -4.5" transform="rotate(90,158.5,104.5)"/><path d="M 172 100v 9h 4.5a 4.5 4.5, 0, 0, 0, 0 -9" transform="rotate(-90,176.5,104.5)"/><path d="M 199 100v 9h 4.5a 4.5 4.5, 0, 0, 0, 0 -9" transform="rotate(180,203.5,104.5)"/><rect x="208" y="100" width="9" height="9" transform="rotate(0,212.5,104.5)"/><rect x="217" y="100" width="9" height="9" transform="rotate(0,221.5,104.5)"/><rect x="226" y="100" width="9" height="9" transform="rotate(0,230.5,104.5)"/><path d="M 244 100v 9h 4.5a 4.5 4.5, 0, 0, 0, 0 -9" transform="rotate(-90,248.5,104.5)"/><circle cx="275.5" cy="104.5" r="4.5" transform="rotate(0,275.5,104.5)"/><path d="M 55 109v 9h 4.5a 4.5 4.5, 0, 0, 0, 0 -9" transform="rotate(-90,59.5,113.5)"/><circle cx="77.5" cy="113.5" r="4.5" transform="rotate(0,77.5,113.5)"/><path d="M 91 109v 9h 9v -4.5a 4.5 4.5, 0, 0, 0, -4.5 -4.5" transform="rotate(-90,95.5,113.5)"/><path d="M 100 109v 9h 4.5a 4.5 4.5, 0, 0, 0, 0 -9" transform="rotate(0,104.5,113.5)"/><path d="M 127 109v 9h 4.5a 4.5 4.5, 0, 0, 0, 0 -9" transform="rotate(-90,131.5,113.5)"/><path d="M 163 109v 9h 9v -4.5a 4.5 4.5, 0, 0, 0, -4.5 -4.5" transform="rotate(-90,167.5,113.5)"/><rect x="172" y="109" width="9" height="9" transform="rotate(0,176.5,113.5)"/><rect x="181" y="109" width="9" height="9" transform="rotate(0,185.5,113.5)"/><path d="M 190 109v 9h 4.5a 4.5 4.5, 0, 0, 0, 0 -9" transform="rotate(0,194.5,113.5)"/><path d="M 208 109v 9h 9v -4.5a 4.5 4.5, 0, 0, 0, -4.5 -4.5" transform="rotate(180,212.5,113.5)"/><rect x="217" y="109" width="9" height="9" transform="rotate(0,221.5,113.5)"/><rect x="226" y="109" width="9" height="9" transform="rotate(0,230.5,113.5)"/><path d="M 244 109v 9h 9v -4.5a 4.5 4.5, 0, 0, 0, -4.5 -4.5" transform="rotate(180,248.5,113.5)"/><rect x="253" y="109" width="9" height="9" transform="rotate(0,257.5,113.5)"/><path d="M 262 109v 9h 9v -4.5a 4.5 4.5, 0, 0, 0, -4.5 -4.5" transform="rotate(0,266.5,113.5)"/><path d="M 37 118v 9h 4.5a 4.5 4.5, 0, 0, 0, 0 -9" transform="rotate(180,41.5,122.5)"/><rect x="46" y="118" width="9" height="9" transform="rotate(0,50.5,122.5)"/><rect x="55" y="118" width="9" height="9" transform="rotate(0,59.5,122.5)"/><path d="M 64 118v 9h 9v -4.5a 4.5 4.5, 0, 0, 0, -4.5 -4.5" transform="rotate(0,68.5,122.5)"/><path d="M 82 118v 9h 4.5a 4.5 4.5, 0, 0, 0, 0 -9" transform="rotate(180,86.5,122.5)"/><path d="M 91 118v 9h 9v -4.5a 4.5 4.5, 0, 0, 0, -4.5 -4.5" transform="rotate(90,95.5,122.5)"/><circle cx="113.5" cy="122.5" r="4.5" transform="rotate(0,113.5,122.5)"/><path d="M 127 118v 9h 4.5a 4.5 4.5, 0, 0, 0, 0 -9" transform="rotate(90,131.5,122.5)"/><circle cx="149.5" cy="122.5" r="4.5" transform="rotate(0,149.5,122.5)"/><rect x="163" y="118" width="9" height="9" transform="rotate(0,167.5,122.5)"/><path d="M 226 118v 9h 9v -4.5a 4.5 4.5, 0, 0, 0, -4.5 -4.5" transform="rotate(180,230.5,122.5)"/><path d="M 235 118v 9h 4.5a 4.5 4.5, 0, 0, 0, 0 -9" transform="rotate(0,239.5,122.5)"/><path d="M 253 118v 9h 9v -4.5a 4.5 4.5, 0, 0, 0, -4.5 -4.5" transform="rotate(180,257.5,122.5)"/><rect x="262" y="118" width="9" height="9" transform="rotate(0,266.5,122.5)"/><path d="M 19 127v 9h 4.5a 4.5 4.5, 0, 0, 0, 0 -9" transform="rotate(-90,23.5,131.5)"/><rect x="46" y="127" width="9" height="9" transform="rotate(0,50.5,131.5)"/><path d="M 64 127v 9h 9v -4.5a 4.5 4.5, 0, 0, 0, -4.5 -4.5" transform="rotate(180,68.5,131.5)"/><path d="M 73 127v 9h 4.5a 4.5 4.5, 0, 0, 0, 0 -9" transform="rotate(0,77.5,131.5)"/><path d="M 100 127v 9h 4.5a 4.5 4.5, 0, 0, 0, 0 -9" transform="rotate(-90,104.5,131.5)"/><path d="M 118 127v 9h 4.5a 4.5 4.5, 0, 0, 0, 0 -9" transform="rotate(-90,122.5,131.5)"/><path d="M 154 127v 9h 4.5a 4.5 4.5, 0, 0, 0, 0 -9" transform="rotate(180,158.5,131.5)"/><rect x="163" y="127" width="9" height="9" transform="rotate(0,167.5,131.5)"/><rect x="172" y="127" width="9" height="9" transform="rotate(0,176.5,131.5)"/><path d="M 181 127v 9h 4.5a 4.5 4.5, 0, 0, 0, 0 -9" transform="rotate(0,185.5,131.5)"/><path d="M 199 127v 9h 9v -4.5a 4.5 4.5, 0, 0, 0, -4.5 -4.5" transform="rotate(-90,203.5,131.5)"/><rect x="208" y="127" width="9" height="9" transform="rotate(0,212.5,131.5)"/><path d="M 217 127v 9h 4.5a 4.5 4.5, 0, 0, 0, 0 -9" transform="rotate(0,221.5,131.5)"/><circle cx="248.5" cy="131.5" r="4.5" transform="rotate(0,248.5,131.5)"/><path d="M 262 127v 9h 9v -4.5a 4.5 4.5, 0, 0, 0, -4.5 -4.5" transform="rotate(180,266.5,131.5)"/><path d="M 271 127v 9h 4.5a 4.5 4.5, 0, 0, 0, 0 -9" transform="rotate(0,275.5,131.5)"/><rect x="19" y="136" width="9" height="9" transform="rotate(0,23.5,140.5)"/><path d="M 37 136v 9h 4.5a 4.5 4.5, 0, 0, 0, 0 -9" transform="rotate(180,41.5,140.5)"/><rect x="46" y="136" width="9" height="9" transform="rotate(0,50.5,140.5)"/><path d="M 55 136v 9h 4.5a 4.5 4.5, 0, 0, 0, 0 -9" transform="rotate(0,59.5,140.5)"/><path d="M 82 136v 9h 4.5a 4.5 4.5, 0, 0, 0, 0 -9" transform="rotate(180,86.5,140.5)"/><rect x="91" y="136" width="9" height="9" transform="rotate(0,95.5,140.5)"/><path d="M 100 136v 9h 9v -4.5a 4.5 4.5, 0, 0, 0, -4.5 -4.5" transform="rotate(90,104.5,140.5)"/><path d="M 118 136v 9h 9v -4.5a 4.5 4.5, 0, 0, 0, -4.5 -4.5" transform="rotate(180,122.5,140.5)"/><path d="M 127 136v 9h 4.5a 4.5 4.5, 0, 0, 0, 0 -9" transform="rotate(0,131.5,140.5)"/><rect x="163" y="136" width="9" height="9" transform="rotate(0,167.5,140.5)"/><path d="M 190 136v 9h 4.5a 4.5 4.5, 0, 0, 0, 0 -9" transform="rotate(180,194.5,140.5)"/><path d="M 199 136v 9h 9v -4.5a 4.5 4.5, 0, 0, 0, -4.5 -4.5" transform="rotate(90,203.5,140.5)"/><rect x="19" y="145" width="9" height="9" transform="rotate(0,23.5,149.5)"/><path d="M 28 145v 9h 9v -4.5a 4.5 4.5, 0, 0, 0, -4.5 -4.5" transform="rotate(0,32.5,149.5)"/><path d="M 46 145v 9h 4.5a 4.5 4.5, 0, 0, 0, 0 -9" transform="rotate(90,50.5,149.5)"/><circle cx="77.5" cy="149.5" r="4.5" transform="rotate(0,77.5,149.5)"/><path d="M 91 145v 9h 4.5a 4.5 4.5, 0, 0, 0, 0 -9" transform="rotate(90,95.5,149.5)"/><path d="M 109 145v 9h 4.5a 4.5 4.5, 0, 0, 0, 0 -9" transform="rotate(-90,113.5,149.5)"/><rect x="163" y="145" width="9" height="9" transform="rotate(0,167.5,149.5)"/><path d="M 244 145v 9h 9v -4.5a 4.5 4.5, 0, 0, 0, -4.5 -4.5" transform="rotate(-90,248.5,149.5)"/><rect x="253" y="145" width="9" height="9" transform="rotate(0,257.5,149.5)"/><rect x="262" y="145" width="9" height="9" transform="rotate(0,266.5,149.5)"/><path d="M 271 145v 9h 4.5a 4.5 4.5, 0, 0, 0, 0 -9" transform="rotate(0,275.5,149.5)"/><rect x="19" y="154" width="9" height="9" transform="rotate(0,23.5,158.5)"/><rect x="28" y="154" width="9" height="9" transform="rotate(0,32.5,158.5)"/><path d="M 55 154v 9h 4.5a 4.5 4.5, 0, 0, 0, 0 -9" transform="rotate(180,59.5,158.5)"/><path d="M 64 154v 9h 9v -4.5a 4.5 4.5, 0, 0, 0, -4.5 -4.5" transform="rotate(0,68.5,158.5)"/><rect x="109" y="154" width="9" height="9" transform="rotate(0,113.5,158.5)"/><path d="M 136 154v 9h 9v -4.5a 4.5 4.5, 0, 0, 0, -4.5 -4.5" transform="rotate(-90,140.5,158.5)"/><rect x="145" y="154" width="9" height="9" transform="rotate(0,149.5,158.5)"/><rect x="154" y="154" width="9" height="9" transform="rotate(0,158.5,158.5)"/><rect x="163" y="154" width="9" height="9" transform="rotate(0,167.5,158.5)"/><path d="M 172 154v 9h 9v -4.5a 4.5 4.5, 0, 0, 0, -4.5 -4.5" transform="rotate(0,176.5,158.5)"/><path d="M 199 154v 9h 9v -4.5a 4.5 4.5, 0, 0, 0, -4.5 -4.5" transform="rotate(-90,203.5,158.5)"/><rect x="208" y="154" width="9" height="9" transform="rotate(0,212.5,158.5)"/><rect x="217" y="154" width="9" height="9" transform="rotate(0,221.5,158.5)"/><path d="M 226 154v 9h 4.5a 4.5 4.5, 0, 0, 0, 0 -9" transform="rotate(0,230.5,158.5)"/><path d="M 244 154v 9h 4.5a 4.5 4.5, 0, 0, 0, 0 -9" transform="rotate(90,248.5,158.5)"/><rect x="262" y="154" width="9" height="9" transform="rotate(0,266.5,158.5)"/><path d="M 19 163v 9h 9v -4.5a 4.5 4.5, 0, 0, 0, -4.5 -4.5" transform="rotate(180,23.5,167.5)"/><path d="M 28 163v 9h 9v -4.5a 4.5 4.5, 0, 0, 0, -4.5 -4.5" transform="rotate(90,32.5,167.5)"/><path d="M 64 163v 9h 9v -4.5a 4.5 4.5, 0, 0, 0, -4.5 -4.5" transform="rotate(180,68.5,167.5)"/><path d="M 73 163v 9h 4.5a 4.5 4.5, 0, 0, 0, 0 -9" transform="rotate(0,77.5,167.5)"/><path d="M 91 163v 9h 4.5a 4.5 4.5, 0, 0, 0, 0 -9" transform="rotate(-90,95.5,167.5)"/><rect x="109" y="163" width="9" height="9" transform="rotate(0,113.5,167.5)"/><path d="M 118 163v 9h 9v -4.5a 4.5 4.5, 0, 0, 0, -4.5 -4.5" transform="rotate(0,122.5,167.5)"/><path d="M 136 163v 9h 9v -4.5a 4.5 4.5, 0, 0, 0, -4.5 -4.5" transform="rotate(180,140.5,167.5)"/><path d="M 145 163v 9h 9v -4.5a 4.5 4.5, 0, 0, 0, -4.5 -4.5" transform="rotate(90,149.5,167.5)"/><rect x="172" y="163" width="9" height="9" transform="rotate(0,176.5,167.5)"/><rect x="199" y="163" width="9" height="9" transform="rotate(0,203.5,167.5)"/><rect x="208" y="163" width="9" height="9" transform="rotate(0,212.5,167.5)"/><path d="M 262 163v 9h 4.5a 4.5 4.5, 0, 0, 0, 0 -9" transform="rotate(90,266.5,167.5)"/><circle cx="59.5" cy="176.5" r="4.5" transform="rotate(0,59.5,176.5)"/><rect x="91" y="172" width="9" height="9" transform="rotate(0,95.5,176.5)"/><rect x="100" y="172" width="9" height="9" transform="rotate(0,104.5,176.5)"/><rect x="109" y="172" width="9" height="9" transform="rotate(0,113.5,176.5)"/><rect x="118" y="172" width="9" height="9" transform="rotate(0,122.5,176.5)"/><path d="M 163 172v 9h 9v -4.5a 4.5 4.5, 0, 0, 0, -4.5 -4.5" transform="rotate(-90,167.5,176.5)"/><path d="M 172 172v 9h 9v -4.5a 4.5 4.5, 0, 0, 0, -4.5 -4.5" transform="rotate(90,176.5,176.5)"/><path d="M 199 172v 9h 9v -4.5a 4.5 4.5, 0, 0, 0, -4.5 -4.5" transform="rotate(180,203.5,176.5)"/><rect x="208" y="172" width="9" height="9" transform="rotate(0,212.5,176.5)"/><rect x="217" y="172" width="9" height="9" transform="rotate(0,221.5,176.5)"/><path d="M 226 172v 9h 9v -4.5a 4.5 4.5, 0, 0, 0, -4.5 -4.5" transform="rotate(0,230.5,176.5)"/><circle cx="248.5" cy="176.5" r="4.5" transform="rotate(0,248.5,176.5)"/><path d="M 271 172v 9h 4.5a 4.5 4.5, 0, 0, 0, 0 -9" transform="rotate(-90,275.5,176.5)"/><circle cx="23.5" cy="185.5" r="4.5" transform="rotate(0,23.5,185.5)"/><path d="M 64 181v 9h 4.5a 4.5 4.5, 0, 0, 0, 0 -9" transform="rotate(180,68.5,185.5)"/><rect x="73" y="181" width="9" height="9" transform="rotate(0,77.5,185.5)"/><rect x="82" y="181" width="9" height="9" transform="rotate(0,86.5,185.5)"/><rect x="91" y="181" width="9" height="9" transform="rotate(0,95.5,185.5)"/><path d="M 100 181v 9h 9v -4.5a 4.5 4.5, 0, 0, 0, -4.5 -4.5" transform="rotate(90,104.5,185.5)"/><path d="M 118 181v 9h 4.5a 4.5 4.5, 0, 0, 0, 0 -9" transform="rotate(90,122.5,185.5)"/><path d="M 136 181v 9h 4.5a 4.5 4.5, 0, 0, 0, 0 -9" transform="rotate(-90,140.5,185.5)"/><rect x="163" y="181" width="9" height="9" transform="rotate(0,167.5,185.5)"/><path d="M 181 181v 9h 4.5a 4.5 4.5, 0, 0, 0, 0 -9" transform="rotate(-90,185.5,185.5)"/><path d="M 208 181v 9h 9v -4.5a 4.5 4.5, 0, 0, 0, -4.5 -4.5" transform="rotate(180,212.5,185.5)"/><rect x="217" y="181" width="9" height="9" transform="rotate(0,221.5,185.5)"/><rect x="226" y="181" width="9" height="9" transform="rotate(0,230.5,185.5)"/><path d="M 235 181v 9h 9v -4.5a 4.5 4.5, 0, 0, 0, -4.5 -4.5" transform="rotate(0,239.5,185.5)"/><path d="M 262 181v 9h 9v -4.5a 4.5 4.5, 0, 0, 0, -4.5 -4.5" transform="rotate(-90,266.5,185.5)"/><rect x="271" y="181" width="9" height="9" transform="rotate(0,275.5,185.5)"/><path d="M 46 190v 9h 4.5a 4.5 4.5, 0, 0, 0, 0 -9" transform="rotate(180,50.5,194.5)"/><path d="M 55 190v 9h 4.5a 4.5 4.5, 0, 0, 0, 0 -9" transform="rotate(0,59.5,194.5)"/><rect x="91" y="190" width="9" height="9" transform="rotate(0,95.5,194.5)"/><circle cx="113.5" cy="194.5" r="4.5" transform="rotate(0,113.5,194.5)"/><path d="M 127 190v 9h 4.5a 4.5 4.5, 0, 0, 0, 0 -9" transform="rotate(180,131.5,194.5)"/><path d="M 136 190v 9h 9v -4.5a 4.5 4.5, 0, 0, 0, -4.5 -4.5" transform="rotate(90,140.5,194.5)"/><path d="M 163 190v 9h 9v -4.5a 4.5 4.5, 0, 0, 0, -4.5 -4.5" transform="rotate(180,167.5,194.5)"/><rect x="172" y="190" width="9" height="9" transform="rotate(0,176.5,194.5)"/><rect x="181" y="190" width="9" height="9" transform="rotate(0,185.5,194.5)"/><rect x="190" y="190" width="9" height="9" transform="rotate(0,194.5,194.5)"/><path d="M 199 190v 9h 9v -4.5a 4.5 4.5, 0, 0, 0, -4.5 -4.5" transform="rotate(0,203.5,194.5)"/><rect x="217" y="190" width="9" height="9" transform="rotate(0,221.5,194.5)"/><rect x="226" y="190" width="9" height="9" transform="rotate(0,230.5,194.5)"/><rect x="235" y="190" width="9" height="9" transform="rotate(0,239.5,194.5)"/><path d="M 262 190v 9h 9v -4.5a 4.5 4.5, 0, 0, 0, -4.5 -4.5" transform="rotate(180,266.5,194.5)"/><path d="M 271 190v 9h 9v -4.5a 4.5 4.5, 0, 0, 0, -4.5 -4.5" transform="rotate(90,275.5,194.5)"/><circle cx="23.5" cy="203.5" r="4.5" transform="rotate(0,23.5,203.5)"/><circle cx="41.5" cy="203.5" r="4.5" transform="rotate(0,41.5,203.5)"/><path d="M 64 199v 9h 4.5a 4.5 4.5, 0, 0, 0, 0 -9" transform="rotate(180,68.5,203.5)"/><path d="M 73 199v 9h 4.5a 4.5 4.5, 0, 0, 0, 0 -9" transform="rotate(0,77.5,203.5)"/><rect x="91" y="199" width="9" height="9" transform="rotate(0,95.5,203.5)"/><circle cx="149.5" cy="203.5" r="4.5" transform="rotate(0,149.5,203.5)"/><rect x="190" y="199" width="9" height="9" transform="rotate(0,194.5,203.5)"/><rect x="199" y="199" width="9" height="9" transform="rotate(0,203.5,203.5)"/><rect x="208" y="199" width="9" height="9" transform="rotate(0,212.5,203.5)"/><rect x="217" y="199" width="9" height="9" transform="rotate(0,221.5,203.5)"/><rect x="226" y="199" width="9" height="9" transform="rotate(0,230.5,203.5)"/><rect x="235" y="199" width="9" height="9" transform="rotate(0,239.5,203.5)"/><path d="M 253 199v 9h 4.5a 4.5 4.5, 0, 0, 0, 0 -9" transform="rotate(-90,257.5,203.5)"/><path d="M 91 208v 9h 4.5a 4.5 4.5, 0, 0, 0, 0 -9" transform="rotate(90,95.5,212.5)"/><circle cx="113.5" cy="212.5" r="4.5" transform="rotate(0,113.5,212.5)"/><path d="M 127 208v 9h 4.5a 4.5 4.5, 0, 0, 0, 0 -9" transform="rotate(180,131.5,212.5)"/><path d="M 136 208v 9h 9v -4.5a 4.5 4.5, 0, 0, 0, -4.5 -4.5" transform="rotate(0,140.5,212.5)"/><path d="M 163 208v 9h 4.5a 4.5 4.5, 0, 0, 0, 0 -9" transform="rotate(-90,167.5,212.5)"/><path d="M 190 208v 9h 9v -4.5a 4.5 4.5, 0, 0, 0, -4.5 -4.5" transform="rotate(180,194.5,212.5)"/><rect x="199" y="208" width="9" height="9" transform="rotate(0,203.5,212.5)"/><rect x="235" y="208" width="9" height="9" transform="rotate(0,239.5,212.5)"/><path d="M 253 208v 9h 9v -4.5a 4.5 4.5, 0, 0, 0, -4.5 -4.5" transform="rotate(180,257.5,212.5)"/><rect x="262" y="208" width="9" height="9" transform="rotate(0,266.5,212.5)"/><path d="M 271 208v 9h 4.5a 4.5 4.5, 0, 0, 0, 0 -9" transform="rotate(0,275.5,212.5)"/><circle cx="104.5" cy="221.5" r="4.5" transform="rotate(0,104.5,221.5)"/><rect x="136" y="217" width="9" height="9" transform="rotate(0,140.5,221.5)"/><path d="M 145 217v 9h 4.5a 4.5 4.5, 0, 0, 0, 0 -9" transform="rotate(0,149.5,221.5)"/><path d="M 163 217v 9h 9v -4.5a 4.5 4.5, 0, 0, 0, -4.5 -4.5" transform="rotate(180,167.5,221.5)"/><path d="M 172 217v 9h 4.5a 4.5 4.5, 0, 0, 0, 0 -9" transform="rotate(0,176.5,221.5)"/><rect x="199" y="217" width="9" height="9" transform="rotate(0,203.5,221.5)"/><circle cx="221.5" cy="221.5" r="4.5" transform="rotate(0,221.5,221.5)"/><rect x="235" y="217" width="9" height="9" transform="rotate(0,239.5,221.5)"/><rect x="262" y="217" width="9" height="9" transform="rotate(0,266.5,221.5)"/><circle cx="95.5" cy="230.5" r="4.5" transform="rotate(0,95.5,230.5)"/><path d="M 136 226v 9h 4.5a 4.5 4.5, 0, 0, 0, 0 -9" transform="rotate(90,140.5,230.5)"/><circle cx="158.5" cy="230.5" r="4.5" transform="rotate(0,158.5,230.5)"/><path d="M 181 226v 9h 4.5a 4.5 4.5, 0, 0, 0, 0 -9" transform="rotate(-90,185.5,230.5)"/><rect x="199" y="226" width="9" height="9" transform="rotate(0,203.5,230.5)"/><rect x="235" y="226" width="9" height="9" transform="rotate(0,239.5,230.5)"/><rect x="244" y="226" width="9" height="9" transform="rotate(0,248.5,230.5)"/><rect x="253" y="226" width="9" height="9" transform="rotate(0,257.5,230.5)"/><rect x="262" y="226" width="9" height="9" transform="rotate(0,266.5,230.5)"/><path d="M 271 226v 9h 9v -4.5a 4.5 4.5, 0, 0, 0, -4.5 -4.5" transform="rotate(0,275.5,230.5)"/><path d="M 109 235v 9h 4.5a 4.5 4.5, 0, 0, 0, 0 -9" transform="rotate(180,113.5,239.5)"/><rect x="118" y="235" width="9" height="9" transform="rotate(0,122.5,239.5)"/><path d="M 127 235v 9h 4.5a 4.5 4.5, 0, 0, 0, 0 -9" transform="rotate(0,131.5,239.5)"/><path d="M 145 235v 9h 4.5a 4.5 4.5, 0, 0, 0, 0 -9" transform="rotate(-90,149.5,239.5)"/><path d="M 163 235v 9h 4.5a 4.5 4.5, 0, 0, 0, 0 -9" transform="rotate(180,167.5,239.5)"/><rect x="172" y="235" width="9" height="9" transform="rotate(0,176.5,239.5)"/><path d="M 181 235v 9h 9v -4.5a 4.5 4.5, 0, 0, 0, -4.5 -4.5" transform="rotate(90,185.5,239.5)"/><rect x="199" y="235" width="9" height="9" transform="rotate(0,203.5,239.5)"/><rect x="208" y="235" width="9" height="9" transform="rotate(0,212.5,239.5)"/><rect x="217" y="235" width="9" height="9" transform="rotate(0,221.5,239.5)"/><rect x="226" y="235" width="9" height="9" transform="rotate(0,230.5,239.5)"/><rect x="235" y="235" width="9" height="9" transform="rotate(0,239.5,239.5)"/><path d="M 271 235v 9h 4.5a 4.5 4.5, 0, 0, 0, 0 -9" transform="rotate(90,275.5,239.5)"/><circle cx="95.5" cy="248.5" r="4.5" transform="rotate(0,95.5,248.5)"/><rect x="118" y="244" width="9" height="9" transform="rotate(0,122.5,248.5)"/><path d="M 145 244v 9h 4.5a 4.5 4.5, 0, 0, 0, 0 -9" transform="rotate(90,149.5,248.5)"/><path d="M 190 244v 9h 9v -4.5a 4.5 4.5, 0, 0, 0, -4.5 -4.5" transform="rotate(-90,194.5,248.5)"/><path d="M 199 244v 9h 9v -4.5a 4.5 4.5, 0, 0, 0, -4.5 -4.5" transform="rotate(90,203.5,248.5)"/><path d="M 217 244v 9h 4.5a 4.5 4.5, 0, 0, 0, 0 -9" transform="rotate(90,221.5,248.5)"/><rect x="235" y="244" width="9" height="9" transform="rotate(0,239.5,248.5)"/><rect x="244" y="244" width="9" height="9" transform="rotate(0,248.5,248.5)"/><rect x="253" y="244" width="9" height="9" transform="rotate(0,257.5,248.5)"/><path d="M 262 244v 9h 4.5a 4.5 4.5, 0, 0, 0, 0 -9" transform="rotate(0,266.5,248.5)"/><path d="M 100 253v 9h 4.5a 4.5 4.5, 0, 0, 0, 0 -9" transform="rotate(-90,104.5,257.5)"/><rect x="118" y="253" width="9" height="9" transform="rotate(0,122.5,257.5)"/><rect x="127" y="253" width="9" height="9" transform="rotate(0,131.5,257.5)"/><path d="M 136 253v 9h 9v -4.5a 4.5 4.5, 0, 0, 0, -4.5 -4.5" transform="rotate(0,140.5,257.5)"/><rect x="190" y="253" width="9" height="9" transform="rotate(0,194.5,257.5)"/><path d="M 235 253v 9h 9v -4.5a 4.5 4.5, 0, 0, 0, -4.5 -4.5" transform="rotate(180,239.5,257.5)"/><rect x="244" y="253" width="9" height="9" transform="rotate(0,248.5,257.5)"/><path d="M 253 253v 9h 9v -4.5a 4.5 4.5, 0, 0, 0, -4.5 -4.5" transform="rotate(90,257.5,257.5)"/><circle cx="275.5" cy="257.5" r="4.5" transform="rotate(0,275.5,257.5)"/><rect x="100" y="262" width="9" height="9" transform="rotate(0,104.5,266.5)"/><rect x="118" y="262" width="9" height="9" transform="rotate(0,122.5,266.5)"/><path d="M 136 262v 9h 4.5a 4.5 4.5, 0, 0, 0, 0 -9" transform="rotate(90,140.5,266.5)"/><path d="M 172 262v 9h 9v -4.5a 4.5 4.5, 0, 0, 0, -4.5 -4.5" transform="rotate(-90,176.5,266.5)"/><rect x="181" y="262" width="9" height="9" transform="rotate(0,185.5,266.5)"/><rect x="190" y="262" width="9" height="9" transform="rotate(0,194.5,266.5)"/><path d="M 199 262v 9h 9v -4.5a 4.5 4.5, 0, 0, 0, -4.5 -4.5" transform="rotate(0,203.5,266.5)"/><path d="M 217 262v 9h 9v -4.5a 4.5 4.5, 0, 0, 0, -4.5 -4.5" transform="rotate(-90,221.5,266.5)"/><path d="M 226 262v 9h 9v -4.5a 4.5 4.5, 0, 0, 0, -4.5 -4.5" transform="rotate(0,230.5,266.5)"/><path d="M 262 262v 9h 4.5a 4.5 4.5, 0, 0, 0, 0 -9" transform="rotate(-90,266.5,266.5)"/><path d="M 91 271v 9h 4.5a 4.5 4.5, 0, 0, 0, 0 -9" transform="rotate(180,95.5,275.5)"/><rect x="100" y="271" width="9" height="9" transform="rotate(0,104.5,275.5)"/><rect x="109" y="271" width="9" height="9" transform="rotate(0,113.5,275.5)"/><path d="M 118 271v 9h 9v -4.5a 4.5 4.5, 0, 0, 0, -4.5 -4.5" transform="rotate(90,122.5,275.5)"/><path d="M 172 271v 9h 4.5a 4.5 4.5, 0, 0, 0, 0 -9" transform="rotate(90,176.5,275.5)"/><path d="M 199 271v 9h 4.5a 4.5 4.5, 0, 0, 0, 0 -9" transform="rotate(90,203.5,275.5)"/><path d="M 217 271v 9h 9v -4.5a 4.5 4.5, 0, 0, 0, -4.5 -4.5" transform="rotate(180,221.5,275.5)"/><path d="M 226 271v 9h 9v -4.5a 4.5 4.5, 0, 0, 0, -4.5 -4.5" transform="rotate(90,230.5,275.5)"/><circle cx="248.5" cy="275.5" r="4.5" transform="rotate(0,248.5,275.5)"/><path d="M 262 271v 9h 4.5a 4.5 4.5, 0, 0, 0, 0 -9" transform="rotate(90,266.5,275.5)"/></clipPath><clipPath id="clip-path-corners-square-color-0-0-35"><path clip-rule="evenodd" d="M 19 41.5v 18a 22.5 22.5, 0, 0, 0, 22.5 22.5h 18a 22.5 22.5, 0, 0, 0, 22.5 -22.5v -18a 22.5 22.5, 0, 0, 0, -22.5 -22.5h -18a 22.5 22.5, 0, 0, 0, -22.5 22.5M 41.5 28h 18a 13.5 13.5, 0, 0, 1, 13.5 13.5v 18a 13.5 13.5, 0, 0, 1, -13.5 13.5h -18a 13.5 13.5, 0, 0, 1, -13.5 -13.5v -18a 13.5 13.5, 0, 0, 1, 13.5 -13.5" transform="rotate(0,50.5,50.5)"/></clipPath><clipPath id="clip-path-corners-dot-color-0-0-35"><circle cx="50.5" cy="50.5" r="13.5" transform="rotate(0,50.5,50.5)"/></clipPath><clipPath id="clip-path-corners-square-color-1-0-35"><path clip-rule="evenodd" d="M 217 41.5v 18a 22.5 22.5, 0, 0, 0, 22.5 22.5h 18a 22.5 22.5, 0, 0, 0, 22.5 -22.5v -18a 22.5 22.5, 0, 0, 0, -22.5 -22.5h -18a 22.5 22.5, 0, 0, 0, -22.5 22.5M 239.5 28h 18a 13.5 13.5, 0, 0, 1, 13.5 13.5v 18a 13.5 13.5, 0, 0, 1, -13.5 13.5h -18a 13.5 13.5, 0, 0, 1, -13.5 -13.5v -18a 13.5 13.5, 0, 0, 1, 13.5 -13.5" transform="rotate(90,248.5,50.5)"/></clipPath><clipPath id="clip-path-corners-dot-color-1-0-35"><circle cx="248.5" cy="50.5" r="13.5" transform="rotate(90,248.5,50.5)"/></clipPath><clipPath id="clip-path-corners-square-color-0-1-35"><path clip-rule="evenodd" d="M 19 239.5v 18a 22.5 22.5, 0, 0, 0, 22.5 22.5h 18a 22.5 22.5, 0, 0, 0, 22.5 -22.5v -18a 22.5 22.5, 0, 0, 0, -22.5 -22.5h -18a 22.5 22.5, 0, 0, 0, -22.5 22.5M 41.5 226h 18a 13.5 13.5, 0, 0, 1, 13.5 13.5v 18a 13.5 13.5, 0, 0, 1, -13.5 13.5h -18a 13.5 13.5, 0, 0, 1, -13.5 -13.5v -18a 13.5 13.5, 0, 0, 1, 13.5 -13.5" transform="rotate(-90,50.5,248.5)"/></clipPath><clipPath id="clip-path-corners-dot-color-0-1-35"><circle cx="50.5" cy="248.5" r="13.5" transform="rotate(-90,50.5,248.5)"/></clipPath></defs><rect x="0" y="0" height="300" width="300" clip-path="url('#clip-path-background-color-35')" fill="#ffffff"/><rect x="0" y="0" height="300" width="300" clip-path="url('#clip-path-dot-color-35')" fill="#000000"/><rect x="19" y="19" height="63" width="63" clip-path="url('#clip-path-corners-square-color-0-0-35')" fill="#000000"/><rect x="37" y="37" height="27" width="27" clip-path="url('#clip-path-corners-dot-color-0-0-35')" fill="#000000"/><rect x="217" y="19" height="63" width="63" clip-path="url('#clip-path-corners-square-color-1-0-35')" fill="#000000"/><rect x="235" y="37" height="27" width="27" clip-path="url('#clip-path-corners-dot-color-1-0-35')" fill="#000000"/><rect x="19" y="217" height="63" width="63" clip-path="url('#clip-path-corners-square-color-0-1-35')" fill="#000000"/><rect x="37" y="235" height="27" width="27" clip-path="url('#clip-path-corners-dot-color-0-1-35')" fill="#000000"/></svg>